<svg id="visual" viewBox="0 0 128 128" width="1024" height="1024" xmlns="http://www.w3.org/2000/svg" xmlns:xlink="http://www.w3.org/1999/xlink" version="1.1">
<g transform="translate(15 14)">
    <path d="M9.3 1C9.3 5.3 4.7 10.7 0.5 10.7C-3.7 10.7 -7.3 5.3 -7.3 1C-7.3 -3.3 -3.7 -6.7 0.5 -6.7C4.7 -6.7 9.3 -3.3 9.3 1" fill="#0038ba"/>
    <path d="M9.3 1C9.3 5.3 4.7 10.7 0.5 10.7C-3.7 10.7 -7.3 5.3 -7.3 1C-7.3 -3.3 -3.7 -6.7 0.5 -6.7C4.7 -6.7 9.3 -3.3 9.3 1" fill="none" stroke="#017cff" stroke-width="1" />
    <path d="m6,-2c-1.484,0-2.6913-1.2073-2.6913-2.6913 0-0.4143-0.3358-0.75-0.75-0.75s-0.75,0.3357-0.75,0.75c0,2.3111 1.8802,4.1913 4.1913,4.1913 0.4142,0 0.75-0.3357 0.75-0.75s-0.3358-0.75-0.75-0.75z" transform="rotate(180, 4, -2)" fill="#10f0ff" stroke="#017cff" stroke-width="1"/>
</g>
</svg>